<svg width="60" height="74" viewBox="0 0 60 74" fill="none" xmlns="http://www.w3.org/2000/svg">
<path fill-rule="evenodd" clip-rule="evenodd" d="M50.1121 39.3191C50.0192 29.9476 57.7225 25.4531 58.0666 25.2298C53.7383 18.869 46.9958 17.9976 44.593 17.8969C38.8549 17.3134 33.3965 21.2896 30.4844 21.2896C27.5795 21.2896 23.0857 17.9831 18.3268 18.07C12.0724 18.1634 6.3055 21.7222 3.08506 27.3475C-3.41311 38.6715 1.42094 55.4472 7.75446 64.6311C10.8493 69.1266 14.5396 74.1757 19.3849 73.9953C24.0508 73.8083 25.8153 70.9632 31.4564 70.9632C37.0974 70.9632 38.6832 73.9953 43.6209 73.9022C48.6419 73.8086 51.8229 69.3207 54.8964 64.8115C58.4503 59.5962 59.9137 54.5471 60 54.2879C59.8885 54.2367 50.2091 50.5129 50.1121 39.3191ZM40.8341 11.817C43.4057 8.68372 45.1415 4.33666 44.668 0C40.9637 0.151469 36.4736 2.47799 33.8159 5.60419C31.4312 8.37746 29.3437 12.8037 29.9031 17.0537C34.0384 17.3777 38.2597 14.9432 40.8341 11.817Z" fill="white"/>
</svg>
